<mxfile host="Electron" agent="Mozilla/5.0 (Windows NT 10.0; Win64; x64) AppleWebKit/537.36 (KHTML, like Gecko) draw.io/24.7.8 Chrome/128.0.6613.36 Electron/32.0.1 Safari/537.36" version="24.7.8">
  <diagram name="Страница — 1" id="HECYshqHHVtCPXv2reNG">
    <mxGraphModel dx="862" dy="504" grid="1" gridSize="10" guides="1" tooltips="1" connect="1" arrows="1" fold="1" page="1" pageScale="1" pageWidth="827" pageHeight="1169" math="0" shadow="0">
      <root>
        <mxCell id="0" />
        <mxCell id="1" parent="0" />
        <mxCell id="NbkA6upEsVN32Ye5rkDv-1" value="Алгоритм расчета среднего времени приема заявок&amp;nbsp;" style="text;html=1;align=center;verticalAlign=middle;whiteSpace=wrap;rounded=0;" vertex="1" parent="1">
          <mxGeometry x="290" y="40" width="200" height="60" as="geometry" />
        </mxCell>
        <mxCell id="NbkA6upEsVN32Ye5rkDv-6" style="edgeStyle=orthogonalEdgeStyle;rounded=0;orthogonalLoop=1;jettySize=auto;html=1;" edge="1" parent="1" source="NbkA6upEsVN32Ye5rkDv-2" target="NbkA6upEsVN32Ye5rkDv-3">
          <mxGeometry relative="1" as="geometry" />
        </mxCell>
        <mxCell id="NbkA6upEsVN32Ye5rkDv-2" value="Среднее время" style="strokeWidth=2;html=1;shape=mxgraph.flowchart.terminator;whiteSpace=wrap;fillColor=none;" vertex="1" parent="1">
          <mxGeometry x="308" y="150" width="164" height="60" as="geometry" />
        </mxCell>
        <mxCell id="NbkA6upEsVN32Ye5rkDv-9" style="edgeStyle=orthogonalEdgeStyle;rounded=0;orthogonalLoop=1;jettySize=auto;html=1;" edge="1" parent="1" source="NbkA6upEsVN32Ye5rkDv-3" target="NbkA6upEsVN32Ye5rkDv-8">
          <mxGeometry relative="1" as="geometry" />
        </mxCell>
        <mxCell id="NbkA6upEsVN32Ye5rkDv-3" value="Получить все заявки" style="verticalLabelPosition=middle;verticalAlign=middle;html=1;shape=process;whiteSpace=wrap;rounded=1;size=0.14;arcSize=6;labelPosition=center;align=center;fillColor=none;" vertex="1" parent="1">
          <mxGeometry x="300" y="240" width="180" height="100" as="geometry" />
        </mxCell>
        <mxCell id="NbkA6upEsVN32Ye5rkDv-5" style="edgeStyle=orthogonalEdgeStyle;rounded=0;orthogonalLoop=1;jettySize=auto;html=1;entryX=0;entryY=0.5;entryDx=0;entryDy=0;" edge="1" parent="1" source="NbkA6upEsVN32Ye5rkDv-4" target="NbkA6upEsVN32Ye5rkDv-3">
          <mxGeometry relative="1" as="geometry" />
        </mxCell>
        <mxCell id="NbkA6upEsVN32Ye5rkDv-4" value="БД Заявок" style="strokeWidth=2;html=1;shape=mxgraph.flowchart.database;whiteSpace=wrap;fillColor=none;" vertex="1" parent="1">
          <mxGeometry x="140" y="245" width="80" height="90" as="geometry" />
        </mxCell>
        <mxCell id="NbkA6upEsVN32Ye5rkDv-12" style="edgeStyle=orthogonalEdgeStyle;rounded=0;orthogonalLoop=1;jettySize=auto;html=1;entryX=0.5;entryY=0;entryDx=0;entryDy=0;" edge="1" parent="1" source="NbkA6upEsVN32Ye5rkDv-8" target="NbkA6upEsVN32Ye5rkDv-11">
          <mxGeometry relative="1" as="geometry" />
        </mxCell>
        <mxCell id="NbkA6upEsVN32Ye5rkDv-8" value="Кол-во_заявок:=Заявок.Кол-во()&lt;div&gt;Кол-во_вып:=0&lt;/div&gt;&lt;div&gt;Время:=0&lt;/div&gt;" style="rounded=0;whiteSpace=wrap;html=1;fillColor=none;" vertex="1" parent="1">
          <mxGeometry x="290" y="370" width="200" height="70" as="geometry" />
        </mxCell>
        <mxCell id="NbkA6upEsVN32Ye5rkDv-16" style="edgeStyle=orthogonalEdgeStyle;rounded=0;orthogonalLoop=1;jettySize=auto;html=1;entryX=0.5;entryY=0;entryDx=0;entryDy=0;" edge="1" parent="1" source="NbkA6upEsVN32Ye5rkDv-11" target="NbkA6upEsVN32Ye5rkDv-15">
          <mxGeometry relative="1" as="geometry" />
        </mxCell>
        <mxCell id="NbkA6upEsVN32Ye5rkDv-27" style="edgeStyle=orthogonalEdgeStyle;rounded=0;orthogonalLoop=1;jettySize=auto;html=1;" edge="1" parent="1" target="NbkA6upEsVN32Ye5rkDv-26">
          <mxGeometry relative="1" as="geometry">
            <mxPoint x="490" y="500" as="sourcePoint" />
            <mxPoint x="415" y="1120" as="targetPoint" />
            <Array as="points">
              <mxPoint x="695" y="500" />
              <mxPoint x="695" y="1070" />
              <mxPoint x="390" y="1070" />
            </Array>
          </mxGeometry>
        </mxCell>
        <mxCell id="NbkA6upEsVN32Ye5rkDv-11" value="i=0; Кол-во_заявок-1;1" style="verticalLabelPosition=middle;verticalAlign=middle;html=1;shape=hexagon;perimeter=hexagonPerimeter2;arcSize=6;size=0.27;labelPosition=center;align=center;fillColor=none;" vertex="1" parent="1">
          <mxGeometry x="315" y="480" width="150" height="90" as="geometry" />
        </mxCell>
        <mxCell id="NbkA6upEsVN32Ye5rkDv-18" style="edgeStyle=orthogonalEdgeStyle;rounded=0;orthogonalLoop=1;jettySize=auto;html=1;" edge="1" parent="1" source="NbkA6upEsVN32Ye5rkDv-15" target="NbkA6upEsVN32Ye5rkDv-17">
          <mxGeometry relative="1" as="geometry" />
        </mxCell>
        <mxCell id="NbkA6upEsVN32Ye5rkDv-15" value="Заявка=Заявка[i]" style="rounded=0;whiteSpace=wrap;html=1;fillColor=none;" vertex="1" parent="1">
          <mxGeometry x="290" y="610" width="200" height="70" as="geometry" />
        </mxCell>
        <mxCell id="NbkA6upEsVN32Ye5rkDv-20" style="edgeStyle=orthogonalEdgeStyle;rounded=0;orthogonalLoop=1;jettySize=auto;html=1;entryX=0.5;entryY=0;entryDx=0;entryDy=0;exitX=1;exitY=0.5;exitDx=0;exitDy=0;exitPerimeter=0;" edge="1" parent="1" source="NbkA6upEsVN32Ye5rkDv-17" target="NbkA6upEsVN32Ye5rkDv-19">
          <mxGeometry relative="1" as="geometry" />
        </mxCell>
        <mxCell id="NbkA6upEsVN32Ye5rkDv-28" value="Да" style="edgeLabel;html=1;align=center;verticalAlign=middle;resizable=0;points=[];" vertex="1" connectable="0" parent="NbkA6upEsVN32Ye5rkDv-20">
          <mxGeometry x="0.4014" y="-3" relative="1" as="geometry">
            <mxPoint as="offset" />
          </mxGeometry>
        </mxCell>
        <mxCell id="NbkA6upEsVN32Ye5rkDv-17" value="Заявка.Статус=&quot;Выполнена&quot;" style="strokeWidth=2;html=1;shape=mxgraph.flowchart.decision;whiteSpace=wrap;fillColor=none;" vertex="1" parent="1">
          <mxGeometry x="300" y="730" width="180" height="100" as="geometry" />
        </mxCell>
        <mxCell id="NbkA6upEsVN32Ye5rkDv-19" value="&lt;div&gt;Кол-во_вып++&lt;/div&gt;&lt;div&gt;Время+=Заявка.Время&lt;/div&gt;" style="rounded=0;whiteSpace=wrap;html=1;fillColor=none;" vertex="1" parent="1">
          <mxGeometry x="450" y="860" width="172" height="70" as="geometry" />
        </mxCell>
        <mxCell id="NbkA6upEsVN32Ye5rkDv-25" style="edgeStyle=orthogonalEdgeStyle;rounded=0;orthogonalLoop=1;jettySize=auto;html=1;entryX=0;entryY=0.5;entryDx=0;entryDy=0;exitX=0.5;exitY=1;exitDx=0;exitDy=0;exitPerimeter=0;" edge="1" parent="1" source="NbkA6upEsVN32Ye5rkDv-21" target="NbkA6upEsVN32Ye5rkDv-11">
          <mxGeometry relative="1" as="geometry">
            <Array as="points">
              <mxPoint x="390" y="1040" />
              <mxPoint x="200" y="1040" />
              <mxPoint x="200" y="525" />
            </Array>
          </mxGeometry>
        </mxCell>
        <mxCell id="NbkA6upEsVN32Ye5rkDv-21" value="" style="verticalLabelPosition=bottom;verticalAlign=top;html=1;shape=mxgraph.flowchart.on-page_reference;fillColor=none;" vertex="1" parent="1">
          <mxGeometry x="370" y="980" width="40" height="40" as="geometry" />
        </mxCell>
        <mxCell id="NbkA6upEsVN32Ye5rkDv-22" style="edgeStyle=orthogonalEdgeStyle;rounded=0;orthogonalLoop=1;jettySize=auto;html=1;entryX=1;entryY=0.5;entryDx=0;entryDy=0;entryPerimeter=0;exitX=0.5;exitY=1;exitDx=0;exitDy=0;" edge="1" parent="1" source="NbkA6upEsVN32Ye5rkDv-19" target="NbkA6upEsVN32Ye5rkDv-21">
          <mxGeometry relative="1" as="geometry" />
        </mxCell>
        <mxCell id="NbkA6upEsVN32Ye5rkDv-23" style="edgeStyle=orthogonalEdgeStyle;rounded=0;orthogonalLoop=1;jettySize=auto;html=1;entryX=0;entryY=0.5;entryDx=0;entryDy=0;entryPerimeter=0;exitX=0;exitY=0.5;exitDx=0;exitDy=0;exitPerimeter=0;" edge="1" parent="1" source="NbkA6upEsVN32Ye5rkDv-17" target="NbkA6upEsVN32Ye5rkDv-21">
          <mxGeometry relative="1" as="geometry" />
        </mxCell>
        <mxCell id="NbkA6upEsVN32Ye5rkDv-24" value="Нет" style="edgeLabel;html=1;align=center;verticalAlign=middle;resizable=0;points=[];" vertex="1" connectable="0" parent="NbkA6upEsVN32Ye5rkDv-23">
          <mxGeometry x="-0.2174" y="2" relative="1" as="geometry">
            <mxPoint as="offset" />
          </mxGeometry>
        </mxCell>
        <mxCell id="NbkA6upEsVN32Ye5rkDv-26" value="Среднее_Время=&lt;span style=&quot;background-color: initial;&quot;&gt;Время/Кол-во_вып&lt;/span&gt;" style="rounded=0;whiteSpace=wrap;html=1;fillColor=none;" vertex="1" parent="1">
          <mxGeometry x="285" y="1134" width="210" height="70" as="geometry" />
        </mxCell>
        <mxCell id="NbkA6upEsVN32Ye5rkDv-29" value="Среднее_время" style="strokeWidth=2;html=1;shape=mxgraph.flowchart.terminator;whiteSpace=wrap;fillColor=none;" vertex="1" parent="1">
          <mxGeometry x="314" y="1250" width="150" height="60" as="geometry" />
        </mxCell>
        <mxCell id="NbkA6upEsVN32Ye5rkDv-30" style="edgeStyle=orthogonalEdgeStyle;rounded=0;orthogonalLoop=1;jettySize=auto;html=1;entryX=0.5;entryY=0;entryDx=0;entryDy=0;entryPerimeter=0;" edge="1" parent="1" source="NbkA6upEsVN32Ye5rkDv-26" target="NbkA6upEsVN32Ye5rkDv-29">
          <mxGeometry relative="1" as="geometry" />
        </mxCell>
      </root>
    </mxGraphModel>
  </diagram>
</mxfile>
